<svg xmlns="http://www.w3.org/2000/svg" width="14" height="14" viewBox="0 0 14 14">
  <g id="search-1" opacity="0.36">
    <g id="Group_432" data-name="Group 432" transform="translate(0 0)">
      <g id="Group_431" data-name="Group 431">
        <path id="Path_1361" data-name="Path 1361" d="M6.165,0a6.165,6.165,0,1,0,6.165,6.165A6.172,6.172,0,0,0,6.165,0Zm0,11.192a5.027,5.027,0,1,1,5.027-5.027A5.033,5.033,0,0,1,6.165,11.192Z" transform="translate(0 0)" fill="#303643"/>
      </g>
    </g>
    <g id="Group_434" data-name="Group 434" transform="translate(9.599 9.599)">
      <g id="Group_433" data-name="Group 433">
        <path id="Path_1362" data-name="Path 1362" d="M355.28,354.475l-3.263-3.263a.569.569,0,0,0-.8.8l3.263,3.263a.569.569,0,0,0,.8-.8Z" transform="translate(-351.046 -351.046)" fill="#303643"/>
      </g>
    </g>
  </g>
</svg>
